<svg id="visual" viewBox="0 0 900 600" width="900" height="600" xmlns="http://www.w3.org/2000/svg" xmlns:xlink="http://www.w3.org/1999/xlink" version="1.1"><rect x="0" y="0" width="900" height="600" fill="#001220"></rect><path d="M0 423L21.5 412.8C43 402.7 86 382.3 128.8 386.3C171.7 390.3 214.3 418.7 257.2 421.5C300 424.3 343 401.7 385.8 398.7C428.7 395.7 471.3 412.3 514.2 423.5C557 434.7 600 440.3 642.8 431.7C685.7 423 728.3 400 771.2 400.3C814 400.7 857 424.3 878.5 436.2L900 448L900 601L878.5 601C857 601 814 601 771.2 601C728.3 601 685.7 601 642.8 601C600 601 557 601 514.2 601C471.3 601 428.7 601 385.8 601C343 601 300 601 257.2 601C214.3 601 171.7 601 128.8 601C86 601 43 601 21.5 601L0 601Z" fill="#fa7268"></path><path d="M0 424L21.5 425C43 426 86 428 128.8 427.7C171.7 427.3 214.3 424.7 257.2 423.8C300 423 343 424 385.8 420.3C428.7 416.7 471.3 408.3 514.2 415.5C557 422.7 600 445.3 642.8 451.5C685.7 457.7 728.3 447.3 771.2 444.7C814 442 857 447 878.5 449.5L900 452L900 601L878.5 601C857 601 814 601 771.2 601C728.3 601 685.7 601 642.8 601C600 601 557 601 514.2 601C471.3 601 428.7 601 385.8 601C343 601 300 601 257.2 601C214.3 601 171.7 601 128.8 601C86 601 43 601 21.5 601L0 601Z" fill="#ef5f67"></path><path d="M0 503L21.5 498.3C43 493.7 86 484.3 128.8 476.3C171.7 468.3 214.3 461.7 257.2 462.7C300 463.7 343 472.3 385.8 475.8C428.7 479.3 471.3 477.7 514.2 475.2C557 472.7 600 469.3 642.8 466.8C685.7 464.3 728.3 462.7 771.2 462C814 461.3 857 461.7 878.5 461.8L900 462L900 601L878.5 601C857 601 814 601 771.2 601C728.3 601 685.7 601 642.8 601C600 601 557 601 514.2 601C471.3 601 428.7 601 385.8 601C343 601 300 601 257.2 601C214.3 601 171.7 601 128.8 601C86 601 43 601 21.5 601L0 601Z" fill="#e34c67"></path><path d="M0 542L21.5 539.5C43 537 86 532 128.8 525.8C171.7 519.7 214.3 512.3 257.2 514.2C300 516 343 527 385.8 529.5C428.7 532 471.3 526 514.2 518.5C557 511 600 502 642.8 499.5C685.7 497 728.3 501 771.2 499.3C814 497.7 857 490.3 878.5 486.7L900 483L900 601L878.5 601C857 601 814 601 771.2 601C728.3 601 685.7 601 642.8 601C600 601 557 601 514.2 601C471.3 601 428.7 601 385.8 601C343 601 300 601 257.2 601C214.3 601 171.7 601 128.8 601C86 601 43 601 21.5 601L0 601Z" fill="#d53867"></path><path d="M0 534L21.5 535.5C43 537 86 540 128.8 541.8C171.7 543.7 214.3 544.3 257.2 548C300 551.7 343 558.3 385.8 556.5C428.7 554.7 471.3 544.3 514.2 542C557 539.7 600 545.3 642.8 547.7C685.7 550 728.3 549 771.2 548.7C814 548.3 857 548.7 878.5 548.8L900 549L900 601L878.5 601C857 601 814 601 771.2 601C728.3 601 685.7 601 642.8 601C600 601 557 601 514.2 601C471.3 601 428.7 601 385.8 601C343 601 300 601 257.2 601C214.3 601 171.7 601 128.8 601C86 601 43 601 21.5 601L0 601Z" fill="#c62368"></path></svg>