<svg width="215" height="215" viewBox="0 0 215 215" fill="none" xmlns="http://www.w3.org/2000/svg"><g clip-path="url(#clip0_2836_115911)"><rect width="215" height="215" rx="12" fill="#F8F8F8"/><path d="M60.287 220.646l-3.032-63.927c-.41-8.697 2.268-17.315 7.706-23.516a38.02 38.02 0 017.204-6.407l6.669-4.548 8.013-5.471 6.543-4.48 19.379-.251 9.04-.114 6.132 4.183 9.234 6.316 6.406 4.377c.069.045.137.091.205.148 9.815 6.805 15.218 19.447 14.238 32.385l-4.708 62.263c-.444 5.893-4.833 10.419-10.077 10.396l-72.67-.285c-5.494-.023-10.02-4.868-10.305-11.057l.023-.012z" fill="#4680E1"/><path d="M127.269 118.543l-3.329 4.48c-8.116 10.909-24.462 10.887-32.544-.034l-3.295-4.446 5.335-17.703 6.099-20.222h16.312l11.433 37.925h-.011z" fill="#F4C9B8"/><path d="M123.758 106.859a18.727 18.727 0 01-2.918 1.744 19.52 19.52 0 01-8.584 1.961c-3.454 0-6.714-.889-9.541-2.462-.9-.502-.376-1.904.638-1.676a20.01 20.01 0 004.332.479 19.67 19.67 0 0014.261-6.099l1.823 6.053h-.011z" fill="#CEA193"/><path d="M92.399 76.492c0 2.53-2.04 6.634-4.56 6.634h-.045c-2.508-.045-4.514-4.126-4.514-6.634a4.575 4.575 0 014.058-4.537c.17 0 .342-.023.501-.023 1.254 0 2.371.502 3.192 1.311a4.517 4.517 0 011.368 3.26h-.011l.01-.011zm39.693 0c0 2.507-2.018 6.577-4.514 6.634h-.046c-2.052 0-3.796-2.736-4.366-5.107a6.247 6.247 0 01-.205-1.516c0-2.508 2.04-4.56 4.56-4.56.171 0 .319.023.478.023 0 0 0 .023.023 0 2.269.262 4.058 2.212 4.058 4.537l.012-.011z" fill="#FFBD6E"/><path d="M128.066 70.393c0 .251 0 .525-.022.787v.034l-.035.741-.296 7.57-.137 3.613-.205 4.867c0 .114-.023.228-.023.354a19.716 19.716 0 01-5.426 12.493 24.68 24.68 0 01-1.265 1.197c-.171.148-.331.285-.502.422-.547.456-1.117.866-1.698 1.254-.217.148-.456.285-.673.433a19.65 19.65 0 01-5.403 2.211c-.285.069-.57.137-.855.183-.319.068-.615.114-.935.171a14.45 14.45 0 01-.969.114c-.114.022-.25.034-.364.034-.513.045-1.049.068-1.585.068-.365 0-.741-.023-1.106-.034-.284-.023-.569-.034-.854-.068-.32-.035-.616-.069-.935-.114h-.046a6.392 6.392 0 01-.786-.149c-.206-.022-.399-.068-.604-.114a19.689 19.689 0 01-9.93-5.597 19.74 19.74 0 01-5.448-12.846l-.171-3.979v-.091l-.034-.798-.148-3.625-.274-6.634-.034-.924-.034-.74c-.388-9.678 6.03-18 14.921-20.45a20.64 20.64 0 012.052-.468c.274-.046.547-.091.832-.114.034-.023.091-.023.137-.023.217-.034.433-.045.673-.068.228-.035.467-.046.718-.046a19.512 19.512 0 015.392.433c.478.103.968.217 1.447.365 8.436 2.485 14.591 10.305 14.591 19.55h.012l.022-.012z" fill="#F4C9B8"/><path d="M107.685 50c-11.376 0-20.61 9.222-20.61 20.598v.878l.205 2.645a1.172 1.172 0 002.314.148l1.311-6.543a16.293 16.293 0 019.519-11.764h.011a18.258 18.258 0 0114.477 0 16.292 16.292 0 019.518 11.764l1.311 6.543c.114.547.593.935 1.152.935a1.16 1.16 0 001.162-1.083l.206-2.68v-.033l.022.034v-.832c0-11.377-9.222-20.599-20.598-20.599" fill="#000"/><path d="M128.283 130.342v-13.406a43.649 43.649 0 01-20.997 5.347c-7.603 0-14.158-1.79-20.21-4.948v13.315a55.855 55.855 0 0020.21 3.761c7.125 0 14.511-1.447 20.997-4.081v.012z" fill="#C3DCF4"/><path d="M93.15 119.946v12.664a60.616 60.616 0 01-2.69-.764v-12.915c.89.365 1.779.707 2.69 1.015z" fill="#9BC2DE"/><path d="M97.471 68.227a1.066 1.066 0 01-.946-.182 1.07 1.07 0 01-.205-1.493c.057-.091 1.584-2.064 4.468-2.748a1.064 1.064 0 011.288.799 1.073 1.073 0 01-.798 1.288c-2.109.501-3.249 1.938-3.26 1.96a1.09 1.09 0 01-.558.376h.011zm20.507 0c.308.092.661.035.946-.182a1.07 1.07 0 00.205-1.493c-.057-.091-1.584-2.064-4.468-2.748a1.064 1.064 0 00-1.288.799 1.073 1.073 0 00.797 1.288c2.109.501 3.249 1.938 3.261 1.96.148.194.342.308.558.376h-.011z" fill="#000"/><path d="M59.933 166.734l-42.906-40.73c-10.225-9.712-6.954-26.754 6.144-31.986L83.267 70l.388 16.027-32.226 16.278c-6.497 2.877-4.954 4.934.331 7.946l31.234 12.607-23.072 43.887.011-.011zm96.14.384l41.846-41.801c9.986-9.974 6.281-26.925-6.953-31.826L130.276 71l.023 16.027 32.42 15.355c7.145 2.55 5.603 5.635-.137 8.139l-30.698 13.303 24.177 43.283.012.011z" fill="#4680E1"/><path d="M77.967 181.638l8.777 3.032c1.824.627 3.716-.718 3.716-2.644v-70.96c0-.388-.148-.753-.422-1.026a1.455 1.455 0 00-2.051 0l-9.701 9.792a7.593 7.593 0 00-2.2 5.346v53.793c0 1.197.763 2.257 1.892 2.644l-.011.023zm58.512-27.381h-8.777a2.81 2.81 0 01-2.805-2.804v-40.387c0-.388.149-.753.422-1.026a1.455 1.455 0 012.052 0l9.701 9.792a7.595 7.595 0 012.2 5.346v26.264a2.81 2.81 0 01-2.804 2.804l.011.011z" fill="#C3DCF4"/><path d="M76.976 73.103s3.149-10.2 14.464-9.75c8.203.322 3.149 2.83 3.149 2.83s-12.012 4.321-9.025 11.1c2.988 6.778 10.133 9.775 10.78 12.013.647 2.237-9.858-.94-12.149-2.2-2.29-1.26-8.352-7.923-7.22-13.98v-.013zm60.344 1.35s-1.969-10.607-12.546-10.066c-7.672.4-2.857 4.338-2.857 4.338s11.1 2.716 8.243 9.513c-2.857 6.796-9.544 9.834-10.164 12.074-.62 2.24 8.547-.863 10.711-2.15 2.164-1.287 7.635-7.672 6.613-13.709z" fill="#F4C9B8"/><path d="M113 97a3.035 3.035 0 01-1.457-.376 3.01 3.01 0 01-1.542-2.553 2.981 2.981 0 01.827-2.14 2.976 2.976 0 012.107-.93 2.983 2.983 0 012.134.826c.583.554.912 1.296.931 2.094 0 .15 0 .29-.019.431-.169 1.465-1.42 2.601-2.905 2.639h-.066L113 97zm0-4.882h-.047a1.86 1.86 0 00-1.325.582 1.848 1.848 0 00-.518 1.343c.019.666.386 1.286.969 1.605a1.89 1.89 0 002.793-1.427c.009-.084.018-.169.018-.263a1.822 1.822 0 00-.592-1.314 1.886 1.886 0 00-1.298-.526z" fill="#000"/><path d="M112.009 74.826l-.2 6.81c-1.173-2.16-2.639-3.439-4.225-3.439-1.492 0-2.879 1.133-4.011 3.08l-.254-6.545c1.133-1.946 2.759-2.346 4.265-2.346 1.586 0 3.252.267 4.412 2.44h.013z" fill="#FB7059"/><path d="M126.735 85.455c4.012-3.132 4.718-8.916 1.586-12.914-3.132-4.012-8.916-4.718-12.914-1.586-4.012 3.132-4.718 8.916-1.586 12.914 3.132 4.012 8.916 4.718 12.914 1.586z" fill="#000"/><path fill-rule="evenodd" clip-rule="evenodd" d="M114.173 69.38c4.87-3.815 11.913-2.953 15.725 1.93 3.812 4.87 2.95 11.91-1.932 15.721-4.869 3.813-11.909 2.95-15.721-1.93-3.813-4.87-2.951-11.911 1.931-15.723l1.231 1.576-1.234-1.574zm12.572 4.391a7.192 7.192 0 00-10.105-1.242l-.003.002a7.193 7.193 0 00-1.242 10.105l.002.002a7.192 7.192 0 0010.105 1.243l.002-.002a7.192 7.192 0 001.243-10.105l-.002-.003z" fill="#FB7059"/><path d="M99.08 86.046c4.332-2.68 5.665-8.357 2.999-12.675-2.679-4.331-8.356-5.664-12.675-2.999-4.331 2.68-5.664 8.357-2.998 12.675 2.678 4.332 8.356 5.664 12.674 2.999z" fill="#000"/><path fill-rule="evenodd" clip-rule="evenodd" d="M88.354 68.67c5.257-3.245 12.166-1.622 15.426 3.65h.001c3.245 5.258 1.622 12.167-3.649 15.427l-1.052-1.701 1.051 1.702c-5.257 3.245-12.167 1.622-15.426-3.649l-.001-.001C81.459 78.84 83.08 71.93 88.352 68.67h.002zm9.675 15.674a7.216 7.216 0 01-9.922-2.348 7.216 7.216 0 012.349-9.922 7.216 7.216 0 019.922 2.349 7.216 7.216 0 01-2.348 9.92" fill="#FB7059"/><path d="M101.5 78.344l-6.23 6.925c-.367.07-.75.097-1.131.097-2.204 0-4.188-.921-5.54-2.401L98 72c2.057 1.228 3.485 3.873 3.5 6.344zm26.8 0l-6.229 6.925c-.368.07-.75.098-1.132.098-2.203 0-4.187-.922-5.539-2.402L124.801 72c2.057 1.229 3.485 3.873 3.499 6.344z" fill="#fff"/></g><defs><clipPath id="clip0_2836_115911"><rect width="215" height="215" rx="12" fill="#fff"/></clipPath></defs></svg>