<svg width="215" height="215" viewBox="0 0 215 215" fill="none" xmlns="http://www.w3.org/2000/svg"><g clip-path="url(#clip0_597_904)"><rect width="215" height="215" rx="12" fill="#F8F8F8"/><path d="M123.836 81.81l-5.615 38.145c-1.001 6.785 5.204 12.41 11.857 10.762l18.525-4.588-1.506-48.802" fill="#000"/><path d="M78.979 186.625l-28.533-13.632-6.895-12.747h51.283l43.171-47.87v64.626l-13.985 7.98a48.59 48.59 0 01-45.036 1.638l-.005.005z" fill="#C3DCF4"/><path d="M48.55 160.246h-5l6.896 12.747 15.712 7.506-17.608-20.253z" fill="#C3DCF4"/><path d="M186.197 203.891l-2.375 11.831c-2.713 13.479-12.81 23.482-25.136 26.805l9.46 6.753c6.595 4.704 3.266 15.096-4.835 15.096h-30.319a48.065 48.065 0 01-26.2-7.764l-46.153-29.997a22.396 22.396 0 01-9.065-25.795c3.455-10.487 14.038-16.892 24.936-15.091l109.687 18.157v.005z" fill="#E47B4C"/><path d="M124.015 184.982l5.399-3.082 2.007-23.735c.095-1.122-1.464-1.496-1.891-.453l-12.489 30.541a48.811 48.811 0 006.974-3.271z" fill="#9BC2DE"/><path fill-rule="evenodd" clip-rule="evenodd" d="M155.993 97.543l-14.917 5.773h.005c-9.628 3.724-20.374-1.633-23.197-11.562l-.291-1.021-2.031-1.37a1.722 1.722 0 01-.716-1.822l.829-3.552-.551-1.937c-2.65-9.313 2.754-19.015 12.072-21.665 9.313-2.65 19.016 2.755 21.665 12.073l7.132 25.083z" fill="#FFBD6E"/><path d="M155.652 99.65l-13.817 9.181a16.471 16.471 0 00-7.29 12.315l-6.995 82.745h59.416c5.346 0 9.212-5.104 7.764-10.25l-11.172-39.727a121.895 121.895 0 00-13.527-30.882l-14.39-23.382h.011z" fill="#C3DCF4"/><path d="M156.237 98.228l-7.527-2.634-7.632 7.717-.111 9.576c-.016 1.306 1.622 1.907 2.454.895l12.821-15.56-.005.006z" fill="#FFBD6E"/><path d="M117.758 77.264a.878.878 0 00.084-1.665c-.079-.031-1.996-.758-4.319.016a.882.882 0 10.559 1.675c1.696-.569 3.118-.047 3.128-.042a.868.868 0 00.553.021m-.084 7.184c.642 1.412 1.301 2.492 1.717 2.302.411-.19.027-1.396-.616-2.802-.643-1.412-1.301-2.492-1.718-2.302-.41.19-.026 1.396.617 2.802zm6.188 11.494c-.316.09-.494.38-.436.664a.56.56 0 00.663.437 4.95 4.95 0 00.416-.1c2.618-.743 4.657-3.398 4.636-6.042a.565.565 0 00-.717-.537.568.568 0 00-.41.542c.015 2.165-1.665 4.335-3.819 4.952a3.787 3.787 0 01-.333.079v.005z" fill="#000"/><path d="M169.135 128.157l-10.35 3.034c-7.923 2.323-15.855-3.619-15.855-11.873V83.184l-6.5-7.148a14.4 14.4 0 00-11.298-4.698l-10.646.469a2.3 2.3 0 01-2.349-2.803l.447-1.975a4.58 4.58 0 013.209-3.387l22.249-6.326c6.995-1.99 14.406 1.396 17.477 7.986l21.343 45.757c3.203 6.869-.463 14.975-7.732 17.103l.005-.005z" fill="#000"/><path d="M136.653 81.567a3.755 3.755 0 117.226-2.054 3.755 3.755 0 01-2.586 4.64 3.754 3.754 0 01-4.64-2.586z" fill="#FFBD6E"/><path d="M33.055 135.392l-2.889 1.43 24.057 48.611 3.06-1.085-24.228-48.956z" fill="#000"/><path d="M54.227 182.211v3.223h53.833v-3.223H54.227z" fill="#000"/><path d="M77.014 180.088l-4.067 1.981a1.377 1.377 0 01-1.506-2.281l12.984-11.209a7.255 7.255 0 019.644.147l7.696 7.064-2.3 10.604-11.253-6.074a12.258 12.258 0 00-11.204-.237l.006.005zM34.74 149.89l.849 8.18a3.228 3.228 0 01-1.707 3.192 3.239 3.239 0 00-.88 5.041l3.83 4.203a10.584 10.584 0 007.833 3.461h3.881L36.39 149.411c-.432-.875-1.755-.49-1.654.479h.005z" fill="#FFBD6E"/><path d="M130.191 205.924l-30.893-19.61 2.476-10.519 33.447 6.416 14.702-44.978 28.117 46.59-13.011 16.281c-8.427 10.545-23.44 13.053-34.838 5.82z" fill="#C3DCF4"/><path d="M184.653 211.576l-20.111-6.189c-.843-.258-.653-1.501.226-1.501h21.428l-1.543 7.685v.005z" fill="#CC6942"/><path d="M56.698 28.047c-15.712-.9-28.734 11.351-28.734 26.581 0 2.54.36 4.998 1.043 7.327.013.035.022.086.048.155.013.035.022.078.035.13l.097.31c-.005.003 0 .003 0 .012 1.012 3.388 6.443 19.363 23.475 38.631 1.27 1.442 3.563 1.442 4.839 0C74.532 81.925 79.963 65.95 80.976 62.562c0-.004.004-.004 0-.013.039-.12.07-.22.096-.31.013-.051.022-.094.035-.129.022-.069.035-.12.048-.155a26.085 26.085 0 001.039-6.982c.175-13.63-11.637-26.134-25.487-26.926h-.009zm-1.621 37.477c-6.132 0-11.098-4.878-11.098-10.9s4.966-10.887 11.098-10.887c6.132 0 11.097 4.878 11.097 10.887 0 6.01-4.966 10.9-11.097 10.9z" fill="#3E5FFF"/></g><defs><clipPath id="clip0_597_904"><rect width="215" height="215" rx="12" fill="#fff"/></clipPath></defs></svg>