<svg width="215" height="215" viewBox="0 0 215 215" fill="none" xmlns="http://www.w3.org/2000/svg"><g clip-path="url(#clip0_1380_83835)"><rect width="215" height="215" rx="12" fill="#F8F8F8"/><path d="M92.173 73.078C72.44 84.865 46.33 79.642 33.288 60.333c-13.568-20.08-8.35-47.469 11.647-61.16.94-.643 4.276-3.072 5.247-3.634" stroke="#3E5FFF" stroke-width="3.5" stroke-miterlimit="10"/><path d="M109.966 143.799c18.434 0 33.377-14.943 33.377-33.376 0-18.434-14.943-33.377-33.377-33.377-18.433 0-33.376 14.943-33.376 33.377 0 18.433 14.943 33.376 33.376 33.376z" fill="#000"/><path d="M144.577 220.486l-35.244-5.812v-.097l-.289.046-.289-.046v.097l-35.244 5.812-22.566 139.478c-2.525 15.605 9.525 29.755 25.328 29.755h65.536c15.809 0 27.853-14.156 25.329-29.755l-22.567-139.478h.006z" fill="#FF7059"/><path d="M153.061 220.82H81.474l-9.44 17.631a13.133 13.133 0 01-6.532 1.743c-4.245 0-8.4-2.06-10.93-5.818L45.8 221.358a36.93 36.93 0 01-3.758-34.078l15.83-40.475a37.2 37.2 0 0115.384-18.281l17.71-10.732h36.144l17.71 10.732a37.199 37.199 0 0115.384 18.281l15.831 40.475.13.333c6.096 16.046-5.937 33.207-23.098 33.207h-.006z" fill="#FFBD6E"/><path d="M127.126 117.793c-9.848 10.318-26.319 10.323-36.167 0l5.971-35.03h24.236l5.966 35.03h-.006z" fill="#824F36"/><path d="M125.144 106.133c-.798.917-2.999 2.02-3.956 2.479a18.082 18.082 0 01-7.929 1.811c-3.193 0-6.198-.821-8.813-2.27-.832-.464-.345-1.754.589-1.545a18.22 18.22 0 003.996.442c5.173 0 11.54-4.8 14.857-8.281l1.251 7.358.005.006z" fill="#663C2B"/><path d="M94.92 78.954c0 2.332-1.884 6.124-4.21 6.124h-.045c-2.315-.045-4.166-3.815-4.166-6.124 0-2.162 1.636-3.95 3.752-4.194.153 0 .306-.017.465-.017a4.2 4.2 0 012.949 1.206 4.193 4.193 0 011.267 3.01m36.654-.005c0 2.315-1.868 6.079-4.166 6.124h-.045c-1.896 0-3.504-2.53-4.03-4.72a5.898 5.898 0 01-.187-1.404 4.218 4.218 0 014.211-4.211c.153 0 .295.017.447.017 0 0 0 .017.017 0 2.1.243 3.753 2.037 3.753 4.194z" fill="#824F36"/><path d="M127.867 73.322c0 .232 0 .481-.017.725v.034l-.028.679-.277 6.99-.125 3.334-.187 4.488c0 .108-.017.215-.017.323a18.19 18.19 0 01-5.014 11.54c-.385.385-.77.759-1.172 1.11-.153.141-.305.26-.464.384-.509.419-1.036.804-1.573 1.155-.199.142-.419.26-.617.402a18.248 18.248 0 01-4.987 2.037c-.26.063-.526.125-.787.17a17.057 17.057 0 01-1.76.261 2.28 2.28 0 01-.339.028c-.481.045-.974.062-1.466.062-.34 0-.679-.017-1.019-.028-.26-.017-.526-.028-.787-.062a16.118 16.118 0 01-.866-.108h-.045a5.26 5.26 0 01-.724-.141c-.187-.017-.368-.063-.555-.108a18.124 18.124 0 01-9.164-5.167 18.167 18.167 0 01-5.031-11.864l-.153-3.673v-.08l-.028-.74-.142-3.351-.249-6.124-.028-.85-.029-.679c-.356-8.937 5.57-16.623 13.782-18.887a18.87 18.87 0 011.897-.43c.249-.045.509-.08.769-.108.029-.017.079-.017.125-.017.198-.028.402-.045.617-.062a5.05 5.05 0 01.662-.045 18.4 18.4 0 014.986.402c.447.09.895.198 1.342.34 7.794 2.297 13.47 9.52 13.47 18.055" fill="#824F36"/><path d="M116.683 86.6c0 1.76-.221 3.192-.9 3.192s-.9-1.426-.9-3.192c0-1.766.221-3.192.9-3.192s.9 1.426.9 3.192zm-13.476 0c0 1.76-.221 3.192-.9 3.192s-.9-1.426-.9-3.192c0-1.766.221-3.192.9-3.192s.9 1.426.9 3.192zm-3.819-5.303c-.3 0-.6-.136-.793-.397a.995.995 0 01.192-1.38c.08-.057 1.925-1.432 4.67-1.308a.991.991 0 01.945 1.03 1.003 1.003 0 01-1.03.945c-2.009-.09-3.379.906-3.39.917a.989.989 0 01-.589.193m19.301.005a.985.985 0 01-.594-.198c-.034-.028-1.404-1.001-3.39-.917a.987.987 0 01-1.03-.945.987.987 0 01.945-1.03c2.739-.124 4.59 1.25 4.669 1.307a.992.992 0 01.193 1.387.993.993 0 01-.787.39M105.691 98.86a.545.545 0 01-.305-.713.546.546 0 01.713-.306c4.047 1.613 7.709.294 7.742.277a.547.547 0 01.38 1.025c-.164.062-4.081 1.488-8.535-.289m3.345-44.362c-10.51 0-19.029 8.518-19.029 19.028v.815l.192 2.44c.046.56.515.996 1.076.996.532 0 1.007-.334 1.194-.832a17.662 17.662 0 019.56-10.08h.011a17.616 17.616 0 0113.986 0 17.662 17.662 0 019.554 10.074c.186.504.662.838 1.194.838.566 0 1.036-.436 1.075-.996l.193-2.48v-.033l.017.034v-.77c0-10.51-8.518-19.029-19.029-19.029l.006-.005z" fill="#000"/><path d="M115.201 165.036h-12.333a4.573 4.573 0 00-4.573 4.573v27.932a4.573 4.573 0 004.573 4.573h12.333a4.572 4.572 0 004.573-4.573v-27.932a4.572 4.572 0 00-4.573-4.573z" fill="#fff"/><path d="M121.891 182.174h-17.767c-1.239 0-2.054 1.291-1.528 2.412l2.015 4.267a6.418 6.418 0 003.192 3.119l12.86 5.699a3.04 3.04 0 004.273-2.779v-9.684a3.04 3.04 0 00-3.039-3.039M100.824 115.8l-9.865 1.992 10.352 22.702c3.022 6.623 12.429 6.628 15.452 0l10.363-22.707-12.548-3.198" fill="#824F36"/><path d="M125.837 69.256c36.593.025 65.049 21.872 66.418 50.66 1.369 28.789-28.695 55.695-67.262 57.529a95.702 95.702 0 01-5.371.101" stroke="#3E5FFF" stroke-width="3.5" stroke-miterlimit="10"/><path d="M122.857 67.171c.919-.367 2.977-.882 3.859 0 .882.882 1.103 3.308 1.103 4.41h-4.962v-4.41z" fill="#000"/><circle cx="190" cy="108" r="7.25" fill="#fff" stroke="#3E5FFF" stroke-width="3.5"/><circle cx="26" cy="37" r="7.25" fill="#fff" stroke="#3E5FFF" stroke-width="3.5"/></g><defs><clipPath id="clip0_1380_83835"><rect width="215" height="215" rx="12" fill="#fff"/></clipPath></defs></svg>