<svg width="215" height="215" viewBox="0 0 215 215" fill="none" xmlns="http://www.w3.org/2000/svg"><g clip-path="url(#clip0_2836_115694)"><rect width="215" height="215" rx="12" fill="#F8F8F8"/><path d="M190.857 217.624l4.271-51.527a104.353 104.353 0 00-5.989-44.463L184 109l-25.049 7.276-6.307 10.001a259.327 259.327 0 00-30.258 67.995l-4.115 14.602c-1.45 5.154 2.053 10.38 7.369 10.998l54.709 6.355c5.304.616 10.062-3.279 10.503-8.603" fill="#95D1F9"/><path d="M96.194 157.007l61.67 7.163L184.5 109l-94.544 19.534 6.238 28.473z" fill="#95D1F9"/><path d="M103.835 91.228c1.08-9.295 11.732-23.765 15.641-28.81a1.416 1.416 0 00-.849-2.257 1.439 1.439 0 00-1.157.28L99.227 74.89a20.392 20.392 0 00-7.597 13.63l-.148 1.278 6.082 1.233 6.27.202.001-.006z" fill="#FFBD6E"/><path d="M103.835 91.229l-7.64 65.778c-15.2-1.766-24.57-17.485-18.897-31.693L91.481 89.8l12.353 1.434v-.005zm67.684 87.969L184 109.5l53.24 114.89-9.697 7.679-56.024-52.871z" fill="#95D1F9"/><path d="M41.116 71.504l-9.931-1.154a6.066 6.066 0 00-5.576 2.413l-5.968 8.022a6.074 6.074 0 00-.7 6.033L22.91 96a6.082 6.082 0 004.874 3.627l9.931 1.153a6.063 6.063 0 005.575-2.413l5.97-8.029a6.074 6.074 0 00.7-6.032l-3.97-9.176a6.081 6.081 0 00-4.874-3.627zM52.974 12.97l-9.932-1.154a6.067 6.067 0 00-5.575 2.413l-5.968 8.022a6.074 6.074 0 00-.701 6.033l3.97 9.183a6.082 6.082 0 004.873 3.627l9.932 1.153a6.066 6.066 0 005.575-2.413l5.97-8.029a6.074 6.074 0 00.7-6.032l-3.97-9.176a6.081 6.081 0 00-4.874-3.627zm32.565 20.337l-9.932-1.153a6.066 6.066 0 00-5.575 2.413l-5.968 8.021a6.074 6.074 0 00-.7 6.033l3.969 9.183a6.081 6.081 0 004.874 3.627l9.931 1.154a6.067 6.067 0 005.575-2.413l5.97-8.03a6.074 6.074 0 00.7-6.032l-3.97-9.176a6.081 6.081 0 00-4.874-3.627z" fill="#FF7059"/><path d="M140.094 148.546a256.405 256.405 0 00-6.006 12.862l-8.618-1.001 13.119-12.953c.755-.746 1.983.136 1.505 1.092zm52.315 50.371l-8.735-8.248c-1.049-.991-2.7.189-2.102 1.501l9.64 21.173 1.197-14.426z" fill="#6AAED8"/><g clip-path="url(#clip1_2836_115694)"><path d="M184.157 110.083l-6.794-5.905-8.423-1.909-6.941 16.815c-.563 1.366.905 2.674 2.199 1.964l19.959-10.965z" fill="#FFBD6E"/><path d="M184.156 110.083l11.729-27.024c4.355-10.033-.248-21.703-10.285-26.06-10.037-4.355-21.703.249-26.059 10.286l-4.534 10.446c-4.643 10.697.914 23.069 11.99 26.709" fill="#FFBD6E"/><path d="M158.789 69.017l-3.574 2.746a1.95 1.95 0 00-.679 2.103l.877 2.938 2.265-3.46 1.115-4.326-.007-.003.003.002z" fill="#FFBD6E"/><path d="M196.634 81.045c2.972-9.534-1.662-19.977-11.034-24.045-7.075-3.07-14.96-1.689-20.523 2.91l-.238.2c5.024 3.024 9.73.005 9.996-.172-8.619 8.297 4.328 19.215 7.232 20.848.058.768.101 1.564.144 2.375.32 5.929.684 12.672 6.943 15.399l6.728-15.502c.284-.654.535-1.327.752-2.013z" fill="#824F36"/><path d="M178.698 82.276a4.242 4.242 0 015.583-2.204 4.242 4.242 0 012.203 5.583 4.243 4.243 0 01-5.583 2.203 4.243 4.243 0 01-2.203-5.582z" fill="#FFBD6E"/><path d="M160.969 65.23a1.012 1.012 0 01-.382-.81.99.99 0 011.015-.97c.098-.001 2.417.066 4.504 1.875a.995.995 0 11-1.3 1.508c-1.527-1.325-3.235-1.392-3.251-1.39a.984.984 0 01-.583-.215" fill="#824F36"/><path d="M159.793 70.852c-.728 1.595-1.165 2.957-.7 3.17.466.215 1.209-1.006 1.941-2.6.728-1.596 1.164-2.957.699-3.171-.465-.214-1.209 1.007-1.94 2.6z" fill="#000"/><path fill-rule="evenodd" clip-rule="evenodd" d="M157.021 87.208a.635.635 0 01-.27-1.241s.181-.032.247-.04a6.85 6.85 0 01.633-.045c.552-.017 1.369.01 2.466.173 1.096.163 1.885.375 2.409.552.262.088.457.168.592.228.068.03.225.11.225.11a.635.635 0 01-.62 1.108c-.011-.005-.201-.106-.603-.242-.449-.152-1.165-.347-2.19-.5-1.026-.152-1.767-.173-2.241-.16a4.316 4.316 0 00-.646.057h-.002z" fill="#000"/></g></g><defs><clipPath id="clip0_2836_115694"><rect width="215" height="215" rx="12" fill="#fff"/></clipPath><clipPath id="clip1_2836_115694"><path fill="#fff" transform="rotate(8.462 -234.197 967.9)" d="M0 0h67.008v73.94H0z"/></clipPath></defs></svg>