<svg id="visual" viewBox="0 0 960 600" width="960" height="600" xmlns="http://www.w3.org/2000/svg" xmlns:xlink="http://www.w3.org/1999/xlink" version="1.1"><rect x="0" y="0" width="960" height="600" fill="#171048"></rect><path d="M0 146L10 152C20 158 40 170 60 159C80 148 100 114 120 115.7C140 117.3 160 154.7 180 175C200 195.3 220 198.7 240 197.8C260 197 280 192 300 179.8C320 167.7 340 148.3 360 135.7C380 123 400 117 420 117.3C440 117.7 460 124.3 480 132.7C500 141 520 151 540 142.5C560 134 580 107 600 116C620 125 640 170 660 180.7C680 191.3 700 167.7 720 150C740 132.3 760 120.7 780 114.7C800 108.7 820 108.3 840 116C860 123.7 880 139.3 900 151.5C920 163.7 940 172.3 950 176.7L960 181L960 0L950 0C940 0 920 0 900 0C880 0 860 0 840 0C820 0 800 0 780 0C760 0 740 0 720 0C700 0 680 0 660 0C640 0 620 0 600 0C580 0 560 0 540 0C520 0 500 0 480 0C460 0 440 0 420 0C400 0 380 0 360 0C340 0 320 0 300 0C280 0 260 0 240 0C220 0 200 0 180 0C160 0 140 0 120 0C100 0 80 0 60 0C40 0 20 0 10 0L0 0Z" fill="#4417ed" stroke-linecap="round" stroke-linejoin="miter"></path></svg>