<svg id="visual" viewBox="0 0 900 600" width="900" height="600" xmlns="http://www.w3.org/2000/svg" xmlns:xlink="http://www.w3.org/1999/xlink" version="1.1"><rect x="0" y="0" width="900" height="600" fill="#020e24"></rect><path d="M0 527L13.7 515.2C27.3 503.3 54.7 479.7 82 463.8C109.3 448 136.7 440 163.8 448.5C191 457 218 482 245.2 496.5C272.3 511 299.7 515 327 512.8C354.3 510.7 381.7 502.3 409 494.8C436.3 487.3 463.7 480.7 491 469C518.3 457.3 545.7 440.7 573 450C600.3 459.3 627.7 494.7 654.8 499.2C682 503.7 709 477.3 736.2 463.2C763.3 449 790.7 447 818 444.5C845.3 442 872.7 439 886.3 437.5L900 436L900 601L886.3 601C872.7 601 845.3 601 818 601C790.7 601 763.3 601 736.2 601C709 601 682 601 654.8 601C627.7 601 600.3 601 573 601C545.7 601 518.3 601 491 601C463.7 601 436.3 601 409 601C381.7 601 354.3 601 327 601C299.7 601 272.3 601 245.2 601C218 601 191 601 163.8 601C136.7 601 109.3 601 82 601C54.7 601 27.3 601 13.7 601L0 601Z" fill="#4417ed" stroke-linecap="round" stroke-linejoin="miter"></path></svg>